<svg width="937" height="234" viewBox="0 0 937 234" fill="none" xmlns="http://www.w3.org/2000/svg">
<path d="M211.756 32.2353L211.251 30.4255C212.317 30.5378 213.313 30.6219 214.239 30.6781C215.193 30.7061 215.965 30.7342 216.554 30.7622C217.143 30.7622 217.438 30.7622 217.438 30.7622H239.786C240.066 30.7622 240.277 30.7482 240.417 30.7201C240.585 30.664 240.74 30.5378 240.88 30.3414C241.048 30.145 241.287 29.8363 241.595 29.4155C241.904 28.9665 242.213 28.5316 242.521 28.1108C242.858 27.6619 243.082 27.3532 243.195 27.1849C243.503 26.7921 243.91 26.736 244.415 27.0165C244.864 27.2691 245.397 27.6478 246.014 28.1529C246.632 28.6298 247.221 29.1209 247.782 29.6259C248.371 30.1309 248.792 30.5378 249.045 30.8464C249.269 31.127 249.325 31.3935 249.213 31.646C249.129 31.8986 248.974 32.0248 248.75 32.0248H217.438C217.438 32.0248 217.143 32.0248 216.554 32.0248C215.965 32.0248 215.221 32.0388 214.323 32.0669C213.454 32.095 212.598 32.1511 211.756 32.2353ZM215.081 7.95139L214.576 6.09959C215.698 6.21182 216.778 6.29599 217.817 6.35211C218.855 6.38016 219.71 6.40822 220.384 6.43628C221.085 6.43628 221.436 6.43628 221.436 6.43628H236.629C236.91 6.43628 237.134 6.40822 237.303 6.35211C237.499 6.26793 237.653 6.12765 237.765 5.93124C237.934 5.70678 238.144 5.41218 238.397 5.04743C238.649 4.65462 238.902 4.27584 239.154 3.91109C239.407 3.54634 239.589 3.2798 239.701 3.11145C239.982 2.69059 240.361 2.62045 240.838 2.90102C241.287 3.15354 241.806 3.50426 242.395 3.95318C243.012 4.4021 243.587 4.86505 244.121 5.34203C244.682 5.81901 245.089 6.22585 245.341 6.56254C245.566 6.81506 245.636 7.0816 245.551 7.36218C245.467 7.6147 245.299 7.74096 245.046 7.74096C244.934 7.74096 244.682 7.74096 244.289 7.74096C243.896 7.74096 243.391 7.74096 242.774 7.74096C241.792 7.74096 240.599 7.74096 239.196 7.74096C237.822 7.74096 236.349 7.74096 234.777 7.74096C233.234 7.74096 231.691 7.74096 230.148 7.74096C228.633 7.74096 227.23 7.74096 225.939 7.74096C224.677 7.74096 223.638 7.74096 222.825 7.74096C222.011 7.74096 221.548 7.74096 221.436 7.74096C221.436 7.74096 221.085 7.74096 220.384 7.74096C219.71 7.74096 218.883 7.75499 217.901 7.78304C216.919 7.8111 215.979 7.86722 215.081 7.95139Z" fill="url(#paint0_linear_10615_7221)"/>
<path d="M277.958 32.6982C275.489 32.6982 273.595 32.2072 272.276 31.2252C270.986 30.2432 270.34 28.6018 270.34 26.3011V9.80319C270.34 8.87729 270.298 8.13376 270.214 7.57261C270.13 7.01146 269.962 6.5906 269.709 6.31002C269.485 6.02944 269.078 5.80498 268.489 5.63664C268.264 5.328 268.292 5.04743 268.573 4.79491C269.611 4.57045 270.733 4.61253 271.94 4.92117C273.146 5.2298 274.184 5.73484 275.054 6.43628C275.447 6.77297 275.643 7.13772 275.643 7.53053C275.671 7.89528 275.573 8.23197 275.349 8.5406C275.068 9.01758 274.83 9.73305 274.633 10.687C274.465 11.641 274.339 12.7352 274.254 13.9697C274.17 15.1762 274.114 16.4388 274.086 17.7575C275.152 17.3928 276.275 16.9579 277.453 16.4528C278.631 15.9478 279.768 15.4147 280.862 14.8536C281.956 14.2924 282.896 13.7453 283.682 13.2122C284.215 12.8194 284.58 12.3985 284.776 11.9496C284.972 11.5007 284.888 10.9956 284.523 10.4345C284.523 10.0136 284.72 9.80319 285.113 9.80319C286.011 10.1679 286.936 10.7572 287.89 11.5708C288.844 12.3845 289.616 13.2402 290.205 14.1381C290.598 14.6712 290.71 15.2183 290.542 15.7795C290.373 16.3126 289.967 16.5791 289.321 16.5791C288.648 16.5791 287.736 16.7054 286.586 16.9579C285.463 17.1823 284.145 17.4629 282.63 17.7996C281.143 18.1082 279.641 18.4309 278.126 18.7676C276.611 19.0762 275.25 19.3708 274.044 19.6514V25.7119C274.044 26.9183 274.353 27.732 274.97 28.1529C275.587 28.5457 276.527 28.7421 277.79 28.7421C279.613 28.7421 281.409 28.6158 283.177 28.3633C284.972 28.1108 286.502 27.746 287.764 27.2691C288.269 27.0446 288.886 27.0586 289.616 27.3111C290.289 27.5075 290.85 27.7601 291.299 28.0687C291.776 28.3773 292.155 28.686 292.436 28.9946C292.969 29.668 293.095 30.3273 292.814 30.9727C292.562 31.5899 291.861 31.9687 290.71 32.109C289.981 32.1932 289.083 32.2773 288.017 32.3615C286.979 32.4176 285.856 32.4737 284.65 32.5299C283.471 32.586 282.293 32.6281 281.114 32.6561C279.964 32.6842 278.912 32.6982 277.958 32.6982ZM295.466 12.16C295.157 12.3284 294.835 12.3705 294.498 12.2863C294.189 12.1741 293.923 11.9215 293.698 11.5287C293.137 10.5748 292.45 9.6629 291.636 8.79312C290.85 7.92333 289.981 7.19383 289.027 6.60463C288.971 6.46434 288.971 6.32405 289.027 6.18376C289.083 6.01541 289.195 5.91721 289.363 5.88916C290.177 5.91721 291.033 6.08556 291.931 6.39419C292.829 6.70283 293.642 7.09563 294.372 7.57261C295.101 8.04959 295.62 8.56866 295.929 9.12981C296.322 9.83125 296.448 10.4625 296.308 11.0237C296.167 11.5568 295.887 11.9356 295.466 12.16ZM299.127 7.10966C298.875 7.33412 298.552 7.44635 298.159 7.44635C297.795 7.44635 297.458 7.29204 297.149 6.9834C296.364 6.22585 295.494 5.55246 294.54 4.96325C293.614 4.37405 292.604 3.93915 291.51 3.65858C291.285 3.32188 291.327 3.05534 291.636 2.85894C292.366 2.7467 293.179 2.71865 294.077 2.77476C294.975 2.80282 295.831 2.91505 296.644 3.11145C297.486 3.30786 298.145 3.61649 298.622 4.03735C299.212 4.51433 299.52 5.07548 299.548 5.72081C299.604 6.33808 299.464 6.80103 299.127 7.10966Z" fill="url(#paint1_linear_10615_7221)"/>
<path d="M333.428 29.3734C332.951 29.0928 332.376 28.686 331.702 28.1529C331.057 27.6198 330.58 27.1709 330.271 26.8061C329.851 26.273 329.78 25.768 330.061 25.291C330.117 25.1507 330.173 24.9683 330.229 24.7439C330.313 24.5194 330.384 24.2809 330.44 24.0284C330.524 23.6356 330.594 22.9762 330.65 22.0503C330.734 21.1244 330.79 20.0302 330.819 18.7676C330.875 17.505 330.903 16.2144 330.903 14.8956C330.931 13.5208 330.931 12.5108 330.903 11.8654C330.875 11.2201 330.762 10.673 330.566 10.2241C330.454 9.9996 330.271 9.77513 330.019 9.55067C329.766 9.32621 329.444 9.19995 329.051 9.1719C328.742 8.86326 328.742 8.58269 329.051 8.33017C329.556 8.10571 330.173 7.97945 330.903 7.95139C331.66 7.89527 332.446 7.99348 333.26 8.24599C334.073 8.47046 334.817 8.89132 335.49 9.50859C335.799 9.78916 335.981 10.1118 336.037 10.4766C336.121 10.8413 336.051 11.178 335.827 11.4866C335.406 12.1039 335.111 13.0018 334.943 14.1802C334.831 14.9658 334.761 16.0741 334.733 17.505C334.705 18.9079 334.69 20.5633 334.69 22.4712C334.69 22.9201 334.803 23.1867 335.027 23.2708C335.28 23.355 335.63 23.3129 336.079 23.1446C337.089 22.7518 338.198 22.1906 339.404 21.4611C340.611 20.7316 341.817 19.8899 343.024 18.9359C344.258 17.9539 345.423 16.9158 346.517 15.8216C347.611 14.6992 348.551 13.5629 349.337 12.4126C349.785 12.3284 350.052 12.4967 350.136 12.9176C349.547 14.2644 348.789 15.6392 347.864 17.0421C346.938 18.4449 345.9 19.8198 344.749 21.1665C343.627 22.5133 342.42 23.7478 341.13 24.8701C339.867 25.9924 338.605 26.9324 337.342 27.6899C336.444 28.223 335.785 28.7 335.364 29.1209C335.083 29.4295 334.775 29.5978 334.438 29.6259C334.129 29.654 333.793 29.5698 333.428 29.3734ZM312.974 32.5719C312.553 32.4317 312.385 32.1651 312.469 31.7723C314.798 30.0327 316.79 27.6759 318.445 24.7018C320.101 21.7277 321.195 18.1924 321.728 14.096C321.812 13.3385 321.798 12.7913 321.686 12.4546C321.574 12.0899 321.237 11.8514 320.676 11.7392C320.395 11.4025 320.423 11.1219 320.76 10.8974C321.489 10.6449 322.415 10.6028 323.538 10.7712C324.66 10.9395 325.754 11.5007 326.82 12.4546C327.073 12.6791 327.213 12.9597 327.241 13.2964C327.297 13.605 327.199 13.9136 326.947 14.2223C326.694 14.5028 326.484 14.7834 326.315 15.064C326.175 15.3165 326.035 15.7233 325.894 16.2845C325.193 19.1464 324.225 21.6014 322.99 23.6496C321.756 25.6978 320.297 27.4374 318.613 28.8683C316.93 30.2993 315.05 31.5338 312.974 32.5719Z" fill="url(#paint2_linear_10615_7221)"/>
<path d="M381.785 22.85C380.551 22.85 379.498 22.4151 378.629 21.5453C377.759 20.6755 377.324 19.6234 377.324 18.3888C377.324 17.1543 377.759 16.1021 378.629 15.2323C379.498 14.3626 380.551 13.9277 381.785 13.9277C383.02 13.9277 384.072 14.3626 384.942 15.2323C385.811 16.1021 386.246 17.1543 386.246 18.3888C386.246 19.6234 385.811 20.6755 384.942 21.5453C384.072 22.4151 383.02 22.85 381.785 22.85Z" fill="url(#paint3_linear_10615_7221)"/>
<path d="M417.769 35.518C417.376 35.3216 417.278 35.041 417.474 34.6763C419.41 33.7784 421.431 32.6 423.535 31.141C425.639 29.654 427.687 27.9424 429.68 26.0065C431.672 24.0424 433.467 21.9101 435.067 19.6093C436.694 17.3086 437.985 14.8956 438.939 12.3705C439.275 11.5287 439.023 11.1219 438.181 11.15C437.76 11.178 437.311 11.2201 436.834 11.2762C436.385 11.3323 435.908 11.4025 435.403 11.4866C434.674 11.5708 433.93 11.655 433.173 11.7392C432.415 11.8233 431.742 11.8514 431.153 11.8233C430.114 13.3665 428.894 14.8816 427.491 16.3687C426.088 17.8557 424.643 19.2165 423.156 20.4511C421.669 21.6575 420.252 22.6536 418.905 23.4392C418.513 23.3831 418.344 23.1586 418.4 22.7658C419.354 21.9802 420.336 20.9842 421.346 19.7777C422.356 18.5431 423.324 17.2104 424.25 15.7795C425.176 14.3485 425.99 12.9176 426.691 11.4866C427.421 10.0277 427.954 8.68089 428.291 7.44635C428.599 6.46434 428.726 5.70678 428.669 5.17369C428.641 4.61254 428.305 4.17764 427.659 3.86901C427.575 3.72872 427.561 3.5744 427.617 3.40606C427.673 3.23771 427.772 3.12548 427.912 3.06937C428.529 3.04131 429.203 3.13951 429.932 3.36397C430.69 3.58843 431.391 3.91109 432.036 4.33196C432.71 4.75282 433.215 5.24383 433.551 5.80498C434.253 6.95535 434.267 7.8111 433.594 8.37225C433.341 8.59672 433.131 8.79312 432.962 8.96146C432.822 9.12981 432.668 9.35427 432.499 9.63485C433.341 9.63485 434.239 9.57873 435.193 9.4665C436.175 9.32621 437.003 9.18592 437.676 9.04564C438.181 8.90535 438.658 8.737 439.107 8.5406C439.556 8.31614 439.921 8.06362 440.201 7.78304C440.706 7.22189 441.281 7.13772 441.927 7.53053C442.235 7.69887 442.642 7.96542 443.147 8.33017C443.652 8.69492 444.157 9.0737 444.662 9.4665C445.195 9.85931 445.602 10.196 445.883 10.4766C446.332 10.8694 446.486 11.2902 446.346 11.7392C446.205 12.1881 445.897 12.5108 445.42 12.7072C444.578 13.0719 443.919 13.7874 443.442 14.8536C441.73 18.3327 439.528 21.4331 436.834 24.1547C434.169 26.8762 431.195 29.191 427.912 31.0989C424.629 32.9788 421.248 34.4518 417.769 35.518Z" fill="url(#paint4_linear_10615_7221)"/>
<path d="M478.205 36.3176C477.756 36.1773 477.602 35.9108 477.742 35.518C479.622 34.2273 481.179 32.6701 482.414 30.8464C483.648 29.0227 484.574 26.8482 485.192 24.323C485.809 21.7698 486.117 18.7676 486.117 15.3165C485.64 15.3165 485.149 15.3305 484.644 15.3586C484.167 15.3586 483.69 15.3726 483.213 15.4007C482.512 15.4287 481.825 15.4708 481.151 15.5269C480.478 15.555 479.847 15.5971 479.257 15.6532C479.313 16.7755 479.37 17.9399 479.426 19.1464C479.51 20.3248 479.58 21.391 479.636 22.3449C479.72 23.2708 479.776 23.9302 479.804 24.323C479.833 24.828 479.636 25.291 479.215 25.7119C478.822 26.1327 478.359 26.3572 477.826 26.3852C477.265 26.3852 476.746 26.1047 476.269 25.5435C475.82 24.9824 475.568 24.323 475.512 23.5655C475.484 22.9201 475.456 21.896 475.427 20.4931C475.399 19.0903 475.357 17.6172 475.301 16.0741C474.628 16.1863 474.025 16.2985 473.491 16.4108C472.958 16.523 472.453 16.6493 471.976 16.7895C471.275 16.9859 470.644 17.1964 470.083 17.4208C469.521 17.6453 468.974 17.7575 468.441 17.7575C468.02 17.7575 467.571 17.5892 467.094 17.2525C466.645 16.9158 466.225 16.4949 465.832 15.9899C465.439 15.4849 465.13 14.9658 464.906 14.4327C464.709 13.8715 464.667 13.3665 464.78 12.9176C465.004 12.5809 465.271 12.5388 465.579 12.7913C465.916 13.2683 466.505 13.5489 467.347 13.6331C468.217 13.7172 469.353 13.7313 470.756 13.6751C471.205 13.6471 471.808 13.619 472.566 13.591C473.351 13.5349 474.235 13.4787 475.217 13.4226C475.189 12.5809 475.161 11.8233 475.133 11.15C475.105 10.4485 475.077 9.87334 475.049 9.42441C475.021 8.77909 474.95 8.26002 474.838 7.86722C474.754 7.47441 474.572 7.16578 474.291 6.94132C474.179 6.85714 474.011 6.787 473.786 6.73089C473.59 6.64671 473.351 6.5906 473.071 6.56254C472.762 6.2539 472.762 5.97333 473.071 5.72081C473.8 5.41218 474.712 5.29995 475.806 5.38412C476.901 5.44023 478.051 5.87513 479.257 6.6888C479.678 6.94132 479.917 7.27801 479.973 7.69887C480.057 8.09168 480.001 8.45643 479.804 8.79312C479.58 9.15787 479.426 9.60679 479.341 10.1399C479.285 10.6449 479.243 11.15 479.215 11.655C479.187 11.8514 479.173 12.0899 479.173 12.3705C479.173 12.623 479.173 12.9036 479.173 13.2122C480.38 13.1561 481.572 13.1 482.751 13.0438C483.957 12.9597 485.079 12.8895 486.117 12.8334V8.11974C486.117 6.80103 486.061 5.79096 485.949 5.08951C485.865 4.38807 485.683 3.89707 485.402 3.61649C485.093 3.33591 484.686 3.1816 484.181 3.15354C483.901 2.84491 483.887 2.56433 484.139 2.31181C484.953 1.919 485.963 1.80677 487.17 1.97512C488.404 2.11541 489.54 2.59239 490.579 3.40606C490.915 3.68663 491.126 4.02333 491.21 4.41613C491.322 4.78088 491.28 5.14563 491.084 5.51038C490.663 6.21182 490.452 7.43232 490.452 9.1719V12.5809C491.182 12.4967 491.897 12.3424 492.599 12.1179C493.3 11.8935 493.875 11.5989 494.324 11.2341C494.829 10.8413 495.559 10.8133 496.513 11.15C497.074 11.3464 497.747 11.641 498.533 12.0338C499.347 12.3985 499.978 12.7773 500.427 13.1701C500.848 13.5068 501.058 13.8856 501.058 14.3064C501.086 14.7273 500.96 15.078 500.679 15.3586C500.427 15.6111 500.076 15.6953 499.627 15.6111C499.178 15.5269 498.449 15.4568 497.439 15.4007C496.429 15.3446 495.348 15.3025 494.198 15.2744C493.609 15.2464 492.992 15.2323 492.346 15.2323C491.729 15.2323 491.098 15.2323 490.452 15.2323V15.3165C490.452 18.487 490.102 21.2367 489.4 23.5655C488.727 25.8662 487.801 27.8302 486.622 29.4575C485.472 31.0849 484.167 32.4457 482.708 33.5399C481.249 34.6342 479.748 35.5601 478.205 36.3176Z" fill="url(#paint5_linear_10615_7221)"/>
<path d="M525.805 36.1072C525.608 36.0511 525.482 35.9389 525.426 35.7705C525.37 35.6022 525.37 35.4338 525.426 35.2655C527.081 34.4237 528.597 33.4838 529.971 32.4457C531.346 31.3795 532.525 30.0468 533.507 28.4475C534.517 26.8482 535.288 24.8561 535.821 22.4712C536.355 20.0863 536.621 17.1543 536.621 13.6751C536.621 12.2723 536.607 10.8554 536.579 9.42441C536.551 7.96542 536.495 6.80103 536.411 5.93124C536.298 5.0334 536.116 4.4021 535.864 4.03735C535.611 3.64455 535.176 3.43412 534.559 3.40606C534.278 3.12548 534.264 2.83088 534.517 2.52224C535.415 2.15749 536.495 2.03123 537.757 2.14347C539.048 2.2557 540.255 2.76073 541.377 3.65858C541.714 3.9111 541.924 4.21973 542.008 4.58448C542.092 4.94923 542.022 5.29995 541.798 5.63664C541.517 6.08556 541.335 6.67477 541.251 7.40427C541.166 8.10571 541.124 9.1719 541.124 10.6028V14.601C541.124 17.996 540.746 20.9 539.988 23.3129C539.258 25.6978 538.206 27.7039 536.832 29.3313C535.457 30.9586 533.829 32.3054 531.95 33.3716C530.098 34.4378 528.049 35.3496 525.805 36.1072ZM527.152 23.3971C526.647 23.3971 526.184 23.2147 525.763 22.85C525.342 22.4572 525.019 21.9662 524.795 21.377C524.57 20.7877 524.5 20.1705 524.584 19.5252C524.64 19.0762 524.683 18.3467 524.711 17.3367C524.739 16.2985 524.753 15.1762 524.753 13.9697C524.725 12.9036 524.697 11.8514 524.669 10.8133C524.64 9.74708 524.598 8.93341 524.542 8.37225C524.486 7.47441 524.346 6.87117 524.121 6.56254C523.897 6.22585 523.574 6.01541 523.153 5.93124C523.041 5.84707 522.943 5.74887 522.859 5.63664C522.775 5.52441 522.69 5.4262 522.606 5.34203C522.578 5.20174 522.634 5.06146 522.775 4.92117C523.56 4.52836 524.458 4.37404 525.468 4.45822C526.506 4.51433 527.502 4.86505 528.456 5.51038C529.242 5.98736 529.466 6.73088 529.13 7.74096C528.933 8.246 528.835 9.00355 528.835 10.0136C528.835 10.7151 528.849 11.5287 528.877 12.4546C528.933 13.3525 528.989 14.2784 529.046 15.2323C529.102 16.1863 529.158 17.0701 529.214 17.8838C529.27 18.5291 529.312 19.0903 529.34 19.5672C529.368 20.0442 529.382 20.3809 529.382 20.5773C529.382 21.1946 529.144 21.8259 528.667 22.4712C528.218 23.0885 527.713 23.3971 527.152 23.3971Z" fill="url(#paint6_linear_10615_7221)"/>
<path d="M79.5278 0L0.528447 55.173L153.166 165.338V51.4368L79.5278 0ZM138.708 136.542L26.2388 55.3746L79.7932 17.97L138.708 59.1109V136.542Z" fill="url(#paint7_linear_10615_7221)"/>
<path d="M0 68.6536V182.619L75.5388 233.992L152.511 178.734L0 68.6536ZM14.9995 174.818V97.4501L127.543 178.724L75.5812 216.022L14.9995 174.818Z" fill="url(#paint8_linear_10615_7221)"/>
<path d="M428.04 53.29H521.699C538.026 53.29 549.395 55.7737 555.722 60.8155C562.048 65.8573 565.328 73.542 565.573 83.7848V84.5809C565.573 94.346 562.77 101.553 557.091 106.266C552.845 109.79 546.688 111.711 538.758 112.91V115.394C545.722 115.638 552.686 117.878 559.734 122.283C566.783 126.688 570.296 134.447 570.296 145.57C570.296 156.694 567.091 165.738 560.69 171.66C554.204 177.583 543.238 180.544 527.633 180.544H428.051V53.29H428.04ZM517.612 104.122C532.739 104.122 538.663 98.4431 538.663 88.7523C538.663 79.0615 533.865 75.2297 520.096 75.2297H456.702V104.122H517.612ZM522.177 158.382C535.945 158.382 541.306 153.096 541.306 140.932C541.306 134.924 539.544 130.689 536.104 128.206C532.665 125.722 526.582 124.448 518.016 124.448H456.702V158.382H522.177Z" fill="url(#paint9_linear_10615_7221)"/>
<path d="M359.453 53.1473H330.298V105.553H359.453V53.1473Z" fill="url(#paint10_linear_10615_7221)"/>
<path d="M330.412 137.247C330.412 140.123 330.731 143.732 331.134 146.449L335.773 158.051H334.414L259.014 53.2774H209.143V105.447H238.123V91.6161C238.123 89.2916 237.878 86.2559 237.486 84.0906L233.399 70.6423H234.683L312.727 180.532H359.392V114.978H330.412V137.247Z" fill="url(#paint11_linear_10615_7221)"/>
<path d="M238.116 115.002H209.136V180.556H238.116V115.002Z" fill="url(#paint12_linear_10615_7221)"/>
<path d="M735.6 138.332L733.71 135.572C745.642 134.691 755.164 131.093 762.287 124.766C770.45 117.4 774.537 107.402 774.537 94.7493C774.537 82.0971 770.62 71.8544 762.775 64.4138C754.93 56.9732 743.965 53.29 729.793 53.29H638.14V105.459H667.12V75.304H720.112C737.001 75.304 745.483 81.8636 745.483 95.2376C745.483 108.612 737.001 115.012 720.112 115.012H638.14V180.566H667.12V135.827H714.825L740.684 180.566H773.507L746.172 136.824L735.61 138.342L735.6 138.332Z" fill="url(#paint13_linear_10615_7221)"/>
<path d="M618.293 53.2774H589.632V105.447H618.293V53.2774Z" fill="url(#paint14_linear_10615_7221)"/>
<path d="M618.293 114.989H589.632V180.543H618.293V114.989Z" fill="url(#paint15_linear_10615_7221)"/>
<path d="M809.733 166.143C797.228 156.506 790.933 140.573 790.933 118.284V53.303H819.764V113.029C819.764 128.24 823.352 139.225 830.592 145.997C837.757 152.844 848.914 156.272 863.966 156.272C879.019 156.272 890.176 152.844 897.415 146.082C904.581 139.31 908.169 128.24 908.169 113.029V53.303H937V118.284C937 140.584 930.79 156.516 918.285 166.143C905.78 175.781 887.617 180.557 863.966 180.557C840.316 180.557 822.227 175.781 809.722 166.143H809.733Z" fill="url(#paint16_linear_10615_7221)"/>
<path d="M408.2 53.2774H379.539V105.447H408.2V53.2774Z" fill="url(#paint17_linear_10615_7221)"/>
<path d="M408.2 114.885H379.539V180.545H408.2V114.885Z" fill="url(#paint18_linear_10615_7221)"/>
<defs>
<linearGradient id="paint0_linear_10615_7221" x1="-86.5619" y1="-25.198" x2="937.771" y2="193.982" gradientUnits="userSpaceOnUse">
<stop stop-color="#F29AC4"/>
<stop offset="0.13" stop-color="#F2A9CB"/>
<stop offset="0.275" stop-color="#F2BAD5"/>
<stop offset="0.395" stop-color="#CDC6D7"/>
<stop offset="0.52" stop-color="#82D1D9"/>
<stop offset="0.66" stop-color="#09D4D7"/>
<stop offset="0.8" stop-color="#11BBCA"/>
<stop offset="1" stop-color="#17A0BF"/>
</linearGradient>
<linearGradient id="paint1_linear_10615_7221" x1="-86.5619" y1="-25.198" x2="937.771" y2="193.982" gradientUnits="userSpaceOnUse">
<stop stop-color="#F29AC4"/>
<stop offset="0.13" stop-color="#F2A9CB"/>
<stop offset="0.275" stop-color="#F2BAD5"/>
<stop offset="0.395" stop-color="#CDC6D7"/>
<stop offset="0.52" stop-color="#82D1D9"/>
<stop offset="0.66" stop-color="#09D4D7"/>
<stop offset="0.8" stop-color="#11BBCA"/>
<stop offset="1" stop-color="#17A0BF"/>
</linearGradient>
<linearGradient id="paint2_linear_10615_7221" x1="-86.5619" y1="-25.198" x2="937.771" y2="193.982" gradientUnits="userSpaceOnUse">
<stop stop-color="#F29AC4"/>
<stop offset="0.13" stop-color="#F2A9CB"/>
<stop offset="0.275" stop-color="#F2BAD5"/>
<stop offset="0.395" stop-color="#CDC6D7"/>
<stop offset="0.52" stop-color="#82D1D9"/>
<stop offset="0.66" stop-color="#09D4D7"/>
<stop offset="0.8" stop-color="#11BBCA"/>
<stop offset="1" stop-color="#17A0BF"/>
</linearGradient>
<linearGradient id="paint3_linear_10615_7221" x1="-86.5619" y1="-25.198" x2="937.771" y2="193.982" gradientUnits="userSpaceOnUse">
<stop stop-color="#F29AC4"/>
<stop offset="0.13" stop-color="#F2A9CB"/>
<stop offset="0.275" stop-color="#F2BAD5"/>
<stop offset="0.395" stop-color="#CDC6D7"/>
<stop offset="0.52" stop-color="#82D1D9"/>
<stop offset="0.66" stop-color="#09D4D7"/>
<stop offset="0.8" stop-color="#11BBCA"/>
<stop offset="1" stop-color="#17A0BF"/>
</linearGradient>
<linearGradient id="paint4_linear_10615_7221" x1="-86.5619" y1="-25.198" x2="937.771" y2="193.982" gradientUnits="userSpaceOnUse">
<stop stop-color="#F29AC4"/>
<stop offset="0.13" stop-color="#F2A9CB"/>
<stop offset="0.275" stop-color="#F2BAD5"/>
<stop offset="0.395" stop-color="#CDC6D7"/>
<stop offset="0.52" stop-color="#82D1D9"/>
<stop offset="0.66" stop-color="#09D4D7"/>
<stop offset="0.8" stop-color="#11BBCA"/>
<stop offset="1" stop-color="#17A0BF"/>
</linearGradient>
<linearGradient id="paint5_linear_10615_7221" x1="-86.5619" y1="-25.198" x2="937.771" y2="193.982" gradientUnits="userSpaceOnUse">
<stop stop-color="#F29AC4"/>
<stop offset="0.13" stop-color="#F2A9CB"/>
<stop offset="0.275" stop-color="#F2BAD5"/>
<stop offset="0.395" stop-color="#CDC6D7"/>
<stop offset="0.52" stop-color="#82D1D9"/>
<stop offset="0.66" stop-color="#09D4D7"/>
<stop offset="0.8" stop-color="#11BBCA"/>
<stop offset="1" stop-color="#17A0BF"/>
</linearGradient>
<linearGradient id="paint6_linear_10615_7221" x1="-86.5619" y1="-25.198" x2="937.771" y2="193.982" gradientUnits="userSpaceOnUse">
<stop stop-color="#F29AC4"/>
<stop offset="0.13" stop-color="#F2A9CB"/>
<stop offset="0.275" stop-color="#F2BAD5"/>
<stop offset="0.395" stop-color="#CDC6D7"/>
<stop offset="0.52" stop-color="#82D1D9"/>
<stop offset="0.66" stop-color="#09D4D7"/>
<stop offset="0.8" stop-color="#11BBCA"/>
<stop offset="1" stop-color="#17A0BF"/>
</linearGradient>
<linearGradient id="paint7_linear_10615_7221" x1="-86.5619" y1="-25.198" x2="937.771" y2="193.982" gradientUnits="userSpaceOnUse">
<stop stop-color="#F29AC4"/>
<stop offset="0.13" stop-color="#F2A9CB"/>
<stop offset="0.275" stop-color="#F2BAD5"/>
<stop offset="0.395" stop-color="#CDC6D7"/>
<stop offset="0.52" stop-color="#82D1D9"/>
<stop offset="0.66" stop-color="#09D4D7"/>
<stop offset="0.8" stop-color="#11BBCA"/>
<stop offset="1" stop-color="#17A0BF"/>
</linearGradient>
<linearGradient id="paint8_linear_10615_7221" x1="-86.5619" y1="-25.198" x2="937.771" y2="193.982" gradientUnits="userSpaceOnUse">
<stop stop-color="#F29AC4"/>
<stop offset="0.13" stop-color="#F2A9CB"/>
<stop offset="0.275" stop-color="#F2BAD5"/>
<stop offset="0.395" stop-color="#CDC6D7"/>
<stop offset="0.52" stop-color="#82D1D9"/>
<stop offset="0.66" stop-color="#09D4D7"/>
<stop offset="0.8" stop-color="#11BBCA"/>
<stop offset="1" stop-color="#17A0BF"/>
</linearGradient>
<linearGradient id="paint9_linear_10615_7221" x1="-86.5619" y1="-25.198" x2="937.771" y2="193.982" gradientUnits="userSpaceOnUse">
<stop stop-color="#F29AC4"/>
<stop offset="0.13" stop-color="#F2A9CB"/>
<stop offset="0.275" stop-color="#F2BAD5"/>
<stop offset="0.395" stop-color="#CDC6D7"/>
<stop offset="0.52" stop-color="#82D1D9"/>
<stop offset="0.66" stop-color="#09D4D7"/>
<stop offset="0.8" stop-color="#11BBCA"/>
<stop offset="1" stop-color="#17A0BF"/>
</linearGradient>
<linearGradient id="paint10_linear_10615_7221" x1="-86.5619" y1="-25.198" x2="937.771" y2="193.982" gradientUnits="userSpaceOnUse">
<stop stop-color="#F29AC4"/>
<stop offset="0.13" stop-color="#F2A9CB"/>
<stop offset="0.275" stop-color="#F2BAD5"/>
<stop offset="0.395" stop-color="#CDC6D7"/>
<stop offset="0.52" stop-color="#82D1D9"/>
<stop offset="0.66" stop-color="#09D4D7"/>
<stop offset="0.8" stop-color="#11BBCA"/>
<stop offset="1" stop-color="#17A0BF"/>
</linearGradient>
<linearGradient id="paint11_linear_10615_7221" x1="-86.5619" y1="-25.198" x2="937.771" y2="193.982" gradientUnits="userSpaceOnUse">
<stop stop-color="#F29AC4"/>
<stop offset="0.13" stop-color="#F2A9CB"/>
<stop offset="0.275" stop-color="#F2BAD5"/>
<stop offset="0.395" stop-color="#CDC6D7"/>
<stop offset="0.52" stop-color="#82D1D9"/>
<stop offset="0.66" stop-color="#09D4D7"/>
<stop offset="0.8" stop-color="#11BBCA"/>
<stop offset="1" stop-color="#17A0BF"/>
</linearGradient>
<linearGradient id="paint12_linear_10615_7221" x1="-86.5619" y1="-25.198" x2="937.771" y2="193.982" gradientUnits="userSpaceOnUse">
<stop stop-color="#F29AC4"/>
<stop offset="0.13" stop-color="#F2A9CB"/>
<stop offset="0.275" stop-color="#F2BAD5"/>
<stop offset="0.395" stop-color="#CDC6D7"/>
<stop offset="0.52" stop-color="#82D1D9"/>
<stop offset="0.66" stop-color="#09D4D7"/>
<stop offset="0.8" stop-color="#11BBCA"/>
<stop offset="1" stop-color="#17A0BF"/>
</linearGradient>
<linearGradient id="paint13_linear_10615_7221" x1="-86.5619" y1="-25.198" x2="937.771" y2="193.982" gradientUnits="userSpaceOnUse">
<stop stop-color="#F29AC4"/>
<stop offset="0.13" stop-color="#F2A9CB"/>
<stop offset="0.275" stop-color="#F2BAD5"/>
<stop offset="0.395" stop-color="#CDC6D7"/>
<stop offset="0.52" stop-color="#82D1D9"/>
<stop offset="0.66" stop-color="#09D4D7"/>
<stop offset="0.8" stop-color="#11BBCA"/>
<stop offset="1" stop-color="#17A0BF"/>
</linearGradient>
<linearGradient id="paint14_linear_10615_7221" x1="-86.5619" y1="-25.198" x2="937.771" y2="193.982" gradientUnits="userSpaceOnUse">
<stop stop-color="#F29AC4"/>
<stop offset="0.13" stop-color="#F2A9CB"/>
<stop offset="0.275" stop-color="#F2BAD5"/>
<stop offset="0.395" stop-color="#CDC6D7"/>
<stop offset="0.52" stop-color="#82D1D9"/>
<stop offset="0.66" stop-color="#09D4D7"/>
<stop offset="0.8" stop-color="#11BBCA"/>
<stop offset="1" stop-color="#17A0BF"/>
</linearGradient>
<linearGradient id="paint15_linear_10615_7221" x1="-86.5619" y1="-25.198" x2="937.771" y2="193.982" gradientUnits="userSpaceOnUse">
<stop stop-color="#F29AC4"/>
<stop offset="0.13" stop-color="#F2A9CB"/>
<stop offset="0.275" stop-color="#F2BAD5"/>
<stop offset="0.395" stop-color="#CDC6D7"/>
<stop offset="0.52" stop-color="#82D1D9"/>
<stop offset="0.66" stop-color="#09D4D7"/>
<stop offset="0.8" stop-color="#11BBCA"/>
<stop offset="1" stop-color="#17A0BF"/>
</linearGradient>
<linearGradient id="paint16_linear_10615_7221" x1="-86.5619" y1="-25.198" x2="937.771" y2="193.982" gradientUnits="userSpaceOnUse">
<stop stop-color="#F29AC4"/>
<stop offset="0.13" stop-color="#F2A9CB"/>
<stop offset="0.275" stop-color="#F2BAD5"/>
<stop offset="0.395" stop-color="#CDC6D7"/>
<stop offset="0.52" stop-color="#82D1D9"/>
<stop offset="0.66" stop-color="#09D4D7"/>
<stop offset="0.8" stop-color="#11BBCA"/>
<stop offset="1" stop-color="#17A0BF"/>
</linearGradient>
<linearGradient id="paint17_linear_10615_7221" x1="-86.5619" y1="-25.198" x2="937.771" y2="193.982" gradientUnits="userSpaceOnUse">
<stop stop-color="#F29AC4"/>
<stop offset="0.13" stop-color="#F2A9CB"/>
<stop offset="0.275" stop-color="#F2BAD5"/>
<stop offset="0.395" stop-color="#CDC6D7"/>
<stop offset="0.52" stop-color="#82D1D9"/>
<stop offset="0.66" stop-color="#09D4D7"/>
<stop offset="0.8" stop-color="#11BBCA"/>
<stop offset="1" stop-color="#17A0BF"/>
</linearGradient>
<linearGradient id="paint18_linear_10615_7221" x1="-86.5619" y1="-25.198" x2="937.771" y2="193.982" gradientUnits="userSpaceOnUse">
<stop stop-color="#F29AC4"/>
<stop offset="0.13" stop-color="#F2A9CB"/>
<stop offset="0.275" stop-color="#F2BAD5"/>
<stop offset="0.395" stop-color="#CDC6D7"/>
<stop offset="0.52" stop-color="#82D1D9"/>
<stop offset="0.66" stop-color="#09D4D7"/>
<stop offset="0.8" stop-color="#11BBCA"/>
<stop offset="1" stop-color="#17A0BF"/>
</linearGradient>
</defs>
</svg>
