<?xml version="1.0" encoding="UTF-8"?><svg id="CIRCLE_OUTLINE_BLACK" xmlns="http://www.w3.org/2000/svg" xmlns:xlink="http://www.w3.org/1999/xlink" viewBox="0 0 512 512"><defs><linearGradient id="Degradado_sin_nombre_15" x1="180.66337" y1="6474.58849" x2="101.68208" y2="6072.82908" gradientTransform="translate(0 6508.11017) scale(1 -1)" gradientUnits="userSpaceOnUse"><stop offset="0" stop-color="#f4d5b1"/><stop offset="1" stop-color="#ffd29f"/></linearGradient><linearGradient id="Degradado_sin_nombre_15-2" x1="379.20943" y1="6435.55661" x2="300.22814" y2="6033.7972" xlink:href="#Degradado_sin_nombre_15"/><linearGradient id="Degradado_sin_nombre_15-3" x1="381.52705" y1="6435.10099" x2="302.54576" y2="6033.34159" xlink:href="#Degradado_sin_nombre_15"/><linearGradient id="Degradado_sin_nombre_15-4" x1="175.68105" y1="6475.56796" x2="96.69976" y2="6073.80855" xlink:href="#Degradado_sin_nombre_15"/></defs><circle cx="256" cy="256" r="256" fill="#1c1a1b"/><path d="M169.19605,437.00464l9.40209-43.28001c10.48625-48.27151-26.42329-93.86675-75.98753-93.86675h-43.06838c13.58227,60.65244,54.72717,110.94584,109.65382,137.14676Z" fill="url(#Degradado_sin_nombre_15)"/><path d="M188.08536,444.85789c21.21694,7.57624,44.08226,11.70405,67.91402,11.70405,96.04411,0,176.37668-67.02905,196.45794-156.70405h-131.38686c-59.22343,0-110.4269,41.16032-122.95701,98.83943l-10.02809,46.16057Z" fill="url(#Degradado_sin_nombre_15-2)"/><path d="M455.88317,279.80044c.92762-7.81064,1.40517-15.75916,1.40517-23.81925,0-105.22582-81.31406-191.52678-184.7426-199.9123l-28.21153,129.86604c-10.48689,48.27151,26.42279,93.86551,75.98664,93.86551h135.56232Z" fill="url(#Degradado_sin_nombre_15-3)"/><path d="M252.08843,55.43806c-109.36342,2.07728-197.37677,91.06816-197.37677,200.54313,0,8.06009.47701,16.00861,1.40445,23.81925h45.74591c59.22305,0,110.4274-41.16033,122.95751-98.83944l27.2689-125.52294Z" fill="url(#Degradado_sin_nombre_15-4)"/></svg>