<?xml version="1.0" encoding="UTF-8"?><svg id="CIRCLE_OUTLINE_BLACK" xmlns="http://www.w3.org/2000/svg" viewBox="0 0 512 512"><circle cx="256" cy="256" r="256"/><path d="M395.92672,395.33379c-2.07874,2.07912-6.14683,3.96056-9.16754,4.32588-9.56168,1.15638-32.68705.94407-42.50197.02725-23.46948-2.19229-14.06606-34.97318-15.97114-50.84863-.53405-4.45033-4.11923-8.82251-7.05442-12.25638-3.97532-4.65073-16.53763-17.31712-21.17628-21.16223-3.79017-3.14178-7.26886-5.17421-12.27399-5.74642-8.64337-.98815-47.47611-1.26746-54.65175.60568-5.01638,1.30948-11.4814,8.09423-12.51737,13.18255-3.57227,17.54585,2.43979,44.32886-.3773,62.58749-1.11963,7.25671-7.36873,12.97064-14.6339,13.63601-19.38905,1.77571-59.1283,1.78831-78.50621.00003-7.33835-.67722-13.57538-6.14939-14.74534-13.52457,1.90079-25.17901-2.42751-53.7245-.0359-78.47791.74295-7.68957,5.63368-14.6772,13.63973-15.91517,17.88941-2.76622,41.99472,2.15567,60.34135-.05345,8.96798-1.07983,14.76109-8.9693,15.92112-17.48876,1.07166-7.87042.99297-32.77261-.76838-40.12741-1.54851-6.46605-6.45986-12.26492-13.16518-13.81973-17.15559-3.97797-44.28311,2.15052-62.32891-.63588-7.06034-1.09017-12.75861-7.64076-13.60448-14.66543-2.08784-17.33893-1.67468-60.66888-.03147-78.47477.67722-7.33835,6.14939-13.57538,13.52457-14.74534,25.17672,1.90276,53.72777-2.43014,78.47791-.0359,7.67144.74211,14.67468,5.61739,15.91517,13.63973,2.70342,17.48321-1.98586,40.96749.08147,59.02833,1.09749,9.58801,7.89404,15.92926,17.46079,17.23409,9.55011,1.30256,46.40658,1.1671,54.77979-1.53585,2.20515-.71184,4.14341-1.6385,6.05992-2.93504,3.76443-2.54669,24.55972-23.41842,26.85462-27.1152,8.552-13.77613-6.9056-55.39257,17.53458-58.28016,6.44739-.76175,43.56447-.753,47.88774.99938,4.07394,1.65131,8.82284,8.03189,9.35185,12.49308,1.09203,9.20929,1.10444,34.55415.00102,43.74815-2.91056,24.2517-39.1914,10.30749-53.63976,15.75-5.45672,2.05547-33.16956,30.00435-35.11674,35.55802-.63512,1.81146-1.004,3.27522-1.22416,5.20082-1.11438,9.74682-1.46538,56.99277.60576,64.93163,2.22966,8.54649,28.07985,29.44582,35.43354,36.52622,13.90715,3.41816,47.90918-6.12324,53.32516,12.20962,1.40933,4.77051,1.48495,42.35333.52271,48.17569-.36276,2.195-2.69033,6.448-4.22663,7.98458Z" fill="#32ffdc"/></svg>