<?xml version="1.0" encoding="utf-8"?>
<!-- Generator: Adobe Illustrator 24.0.0, SVG Export Plug-In . SVG Version: 6.00 Build 0)  -->
<svg version="1.1" id="Layer_1" xmlns="http://www.w3.org/2000/svg" xmlns:xlink="http://www.w3.org/1999/xlink" x="0px" y="0px"
	 viewBox="0 0 56 56" style="enable-background:new 0 0 56 56;" xml:space="preserve">
<style type="text/css">
	.st0{fill:#0098EA;}
	.st1{fill:#FFFFFF;}
</style>
<path class="st0" d="M28,56c15.5,0,28-12.5,28-28S43.5,0,28,0S0,12.5,0,28S12.5,56,28,56z"/>
<path class="st1" d="M37.6,15.6H18.4c-3.5,0-5.7,3.8-4,6.9l11.8,20.5c0.8,1.3,2.7,1.3,3.5,0l11.8-20.5
	C43.3,19.4,41.1,15.6,37.6,15.6L37.6,15.6z M26.3,36.8l-2.6-5l-6.2-11.1c-0.4-0.7,0.1-1.6,1-1.6h7.8L26.3,36.8L26.3,36.8z
	 M38.5,20.7l-6.2,11.1l-2.6,5V19.1h7.8C38.4,19.1,38.9,20,38.5,20.7z"/>
</svg>
