<?xml version="1.0" encoding="utf-8"?>
<!-- Generator: Adobe Illustrator 24.0.0, SVG Export Plug-In . SVG Version: 6.00 Build 0)  -->
<svg version="1.1" id="Layer_1" xmlns="http://www.w3.org/2000/svg" xmlns:xlink="http://www.w3.org/1999/xlink" x="0px" y="0px"
	 viewBox="0 0 310.3 200" style="enable-background:new 0 0 310.3 200;" xml:space="preserve">
<style type="text/css">
	.st0{fill-rule:evenodd;clip-rule:evenodd;fill:url(#SVGID_1_);}
	.st1{fill:url(#SVGID_2_);}
</style>
<linearGradient id="SVGID_1_" gradientUnits="userSpaceOnUse" x1="1.2244" y1="203.8978" x2="311.2244" y2="3.8978" gradientTransform="matrix(1 0 0 -1 -1.176522e-08 202)">
	<stop  offset="0" style="stop-color:#44BCC3"/>
	<stop  offset="1" style="stop-color:#236D66"/>
</linearGradient>
<path class="st0" d="M211.5,107.4c24.6-8.6,47.7-23.2,65.4-39.1l0,0c0.7-0.6,1.1-1.5,1.2-2.5c0.1-0.9-0.2-1.9-0.8-2.6
	c-0.6-0.8-1.4-1.3-2.3-1.4c-0.9-0.2-1.9,0-2.7,0.5c-17.7,10.6-37.3,19-57.4,24.1c0.6-7.6,0.5-15.3-0.5-23c-2.3-17-8-33.9-20-46.8
	C181.1,1.9,159.3-3.6,140.5,2.3C117.9,9,99.1,29.4,98.4,53.7c-0.9,32,28.9,58,59.2,61c3.5,0.4,7.1,0.6,10.7,0.6
	c-5.6,12.2-12.8,23.9-20.6,34.7c-23.8-39.3-59.6-71.5-102-89.1C35.7,56.6,25.5,53.3,15,51c-3.6-0.7-7-1.4-10.7-1.8
	c-0.9-0.1-1.8,0.2-2.6,0.7c-0.8,0.5-1.3,1.3-1.5,2.2C-0.1,53,0,53.9,0.4,54.7c0.4,0.8,1.1,1.5,1.9,1.8c23.7,11.7,45.5,27,64.5,45.4
	c24.6,23.7,44,52.3,57,83.8c5.7,13.6,23.6,18.6,35.6,9.8c1.8-1.4,3.5-2.9,5-4.6c10.7-11.6,20.2-24.4,28.2-38.1
	C200.8,139,207.5,123.5,211.5,107.4z M158.3,169.7L158.3,169.7l0.3,0.6C158.5,170.1,158.4,169.9,158.3,169.7z M176.6,91.2
	c1.9-8,2.8-16.2,2.5-24.4c-0.8-14.7-6.5-35.5-24-35.8c-15.1-0.2-28.9,14.1-24.6,29.2C136.9,82.3,156,90.3,176.6,91.2z"/>
<linearGradient id="SVGID_2_" gradientUnits="userSpaceOnUse" x1="63.8018" y1="300.8928" x2="373.8018" y2="100.8928" gradientTransform="matrix(1 0 0 -1 -1.176522e-08 202)">
	<stop  offset="0" style="stop-color:#44BCC3"/>
	<stop  offset="1" style="stop-color:#236D66"/>
</linearGradient>
<path class="st1" d="M288.5,53.3c1.5,7.2,3.9,11.8,10.9,10.8c6-0.8,10.9-6.8,10.9-12.8c0-6-4.9-9.8-10.9-8.9
	C291.9,43.6,287.3,47.4,288.5,53.3z"/>
</svg>
