<!-- by TradingView --><svg width="56" height="56" xmlns="http://www.w3.org/2000/svg"><path d="M0 0h56v56H0V0z" fill="#ADABB8"/><path d="M21.247 21.555h13.785l-2.01-5.393a1.171 1.171 0 00-.41-.553l-11.365 5.946zm-.038-6.401C21.698 13.842 22.772 13 23.956 13h8.15c1.185 0 2.26.842 2.748 2.154l2.009 5.393c.602 1.618-.371 3.453-1.831 3.453h-14c-1.46 0-2.434-1.835-1.832-3.453l2.01-5.393zM10.234 35.555h13.757l-2.008-5.393a1.17 1.17 0 00-.412-.553l-11.337 5.946zm-.038-6.401C10.685 27.842 11.76 27 12.943 27h8.124c1.184 0 2.258.842 2.747 2.154l2.009 5.393C26.426 36.165 25.452 38 23.99 38H10.017c-1.46 0-2.433-1.835-1.83-3.453l2.01-5.393zm35.89 6.401h-13.85l11.43-5.945c.178.126.323.316.412.553l2.008 5.392zM34.943 27c-1.184 0-2.258.842-2.746 2.154l-2.01 5.393C29.586 36.165 30.559 38 32.02 38h14.066c1.46 0 2.434-1.835 1.831-3.453l-2.01-5.393C45.422 27.842 44.346 27 43.163 27h-8.22z" fill="#fff"/></svg>