<!-- by TradingView --><svg width="56" height="56" xmlns="http://www.w3.org/2000/svg"><path d="M0 0h56v56H0V0z" fill="#ABB6B8"/><path d="M21.254 21.555h13.784l-2.009-5.393a1.17 1.17 0 00-.41-.553l-11.365 5.946zm-.038-6.401C21.704 13.842 22.779 13 23.963 13h8.15c1.185 0 2.259.842 2.747 2.154l2.01 5.393c.602 1.618-.371 3.453-1.832 3.453h-14c-1.46 0-2.433-1.835-1.831-3.453l2.01-5.393h-.001zM10.241 35.555h13.757l-2.009-5.393a1.17 1.17 0 00-.41-.553L10.24 35.555zm-.038-6.401C10.69 27.842 11.766 27 12.95 27h8.124c1.184 0 2.258.842 2.746 2.154l2.01 5.393c.602 1.618-.371 3.453-1.832 3.453H10.024c-1.46 0-2.433-1.835-1.831-3.453l2.01-5.393zm35.89 6.401h-13.85l11.43-5.945c.178.126.323.316.412.553l2.008 5.392zM34.95 27c-1.184 0-2.258.842-2.747 2.154l-2.009 5.393c-.603 1.618.371 3.453 1.832 3.453h14.066c1.46 0 2.433-1.835 1.831-3.453l-2.01-5.393C45.428 27.842 44.353 27 43.17 27h-8.22z" fill="#fff"/></svg>