<!-- by TradingView --><svg width="56" height="56" xmlns="http://www.w3.org/2000/svg"><path d="M0 0h56v56H0V0z" fill="#C2B8AB"/><path d="M21.25 21.553h13.783l-2.009-5.393a1.17 1.17 0 00-.41-.553l-11.365 5.946zm-.039-6.401c.489-1.312 1.563-2.154 2.747-2.154h8.15c1.185 0 2.259.842 2.747 2.154l2.01 5.393c.602 1.618-.372 3.453-1.832 3.453h-14c-1.46 0-2.433-1.835-1.83-3.453l2.01-5.393h-.002zM10.236 35.553h13.757l-2.009-5.393a1.171 1.171 0 00-.41-.553l-11.338 5.946zm-.038-6.401c.488-1.312 1.563-2.154 2.747-2.154h8.124c1.184 0 2.258.842 2.747 2.154l2.008 5.393c.603 1.618-.37 3.453-1.83 3.453H10.018c-1.46 0-2.433-1.835-1.831-3.453l2.01-5.393zm35.89 6.401h-13.85l11.43-5.945c.178.126.323.316.412.553l2.008 5.392zm-11.143-8.555c-1.184 0-2.258.842-2.747 2.154l-2.009 5.393c-.603 1.618.371 3.453 1.831 3.453h14.067c1.46 0 2.433-1.835 1.831-3.453l-2.01-5.393c-.485-1.312-1.56-2.154-2.743-2.154h-8.22z" fill="#fff"/></svg>