<svg width="161" height="161" viewBox="0 0 161 161" fill="none" xmlns="http://www.w3.org/2000/svg">
<g clip-path="url(#clip0_711_416)">
<path d="M120.846 0.845215H40.8457C18.7543 0.845215 0.845703 18.7538 0.845703 40.8452V120.848C0.845703 142.94 18.7543 160.848 40.8457 160.848H120.846C142.937 160.848 160.846 142.94 160.846 120.848V40.8452C160.846 18.7538 142.937 0.845215 120.846 0.845215Z" fill="url(#paint0_linear_711_416)"/>
<path d="M82.5897 22.333L84.891 19.0613L82.5897 17.4426L80.2884 19.0613L82.5897 22.333ZM46.8451 47.4759L44.5437 44.2042L39.9683 47.4226L44.4933 50.7115L46.8451 47.4759ZM118.334 47.4759H122.334V45.3991L120.636 44.2042L118.334 47.4759ZM118.334 99.4379L115.983 102.673L122.334 107.29V99.4379H118.334ZM115.156 114.524L117.499 117.766L121.971 114.533L117.507 111.289L115.156 114.524ZM43.668 62.5622L46.0198 59.3266L39.668 54.7097V62.5622H43.668ZM80.3778 139.667L78.1175 142.967L80.44 144.558L82.7213 142.909L80.3778 139.667ZM43.668 114.524H39.668V116.633L41.4077 117.824L43.668 114.524ZM80.2884 19.0613L44.5437 44.2042L49.1464 50.7476L84.891 25.6047L80.2884 19.0613ZM120.636 44.2042L84.891 19.0613L80.2884 25.6047L116.033 50.7476L120.636 44.2042ZM122.334 99.4379V47.4759H114.334V99.4379H122.334ZM44.4933 50.7115L115.983 102.673L120.686 96.2023L49.1968 44.2403L44.4933 50.7115ZM117.507 111.289L46.0198 59.3266L41.3161 65.7977L112.804 117.76L117.507 111.289ZM82.7213 142.909L117.499 117.766L112.812 111.283L78.0343 136.425L82.7213 142.909ZM41.4077 117.824L78.1175 142.967L82.6381 136.367L45.9283 111.224L41.4077 117.824ZM39.668 62.5622V114.524H47.668V62.5622H39.668Z" fill="white"/>
</g>
<defs>
<linearGradient id="paint0_linear_711_416" x1="-13.9354" y1="-16.3851" x2="168.465" y2="-6.63884" gradientUnits="userSpaceOnUse">
<stop stop-color="#F29AC4"/>
<stop offset="0.13" stop-color="#F2A9CB"/>
<stop offset="0.275" stop-color="#F2BAD5"/>
<stop offset="0.395" stop-color="#CDC6D7"/>
<stop offset="0.52" stop-color="#82D1D9"/>
<stop offset="0.66" stop-color="#09D4D7"/>
<stop offset="0.8" stop-color="#11BBCA"/>
<stop offset="1" stop-color="#17A0BF"/>
</linearGradient>
<clipPath id="clip0_711_416">
<rect width="161" height="161" fill="white"/>
</clipPath>
</defs>
</svg>
