<!-- by TradingView --><svg width="56" height="56" xmlns="http://www.w3.org/2000/svg"><path fill="#2B3191" d="M0 0h56v56H0z"/><path d="M44.412 19.333c.317-.333.53-.555 1.376-.555H46V18h-8.471v.778h.212c.847 0 1.059.222 1.377.555.317.334.529 1 .529 1.89v5.666h-6.353V21.11c0-.889.212-1.444.53-1.778.317-.333.529-.555 1.376-.555h.212V18H26.94v.778h.212c.847 0 1.059.222 1.376.555.318.334.53 1 .53 1.89v13.444c0 .889-.212 1.444-.53 1.777-.317.334-.529.556-1.376.556h-.212v1h8.471v-1H35.2c-.847 0-1.059-.222-1.377-.556-.317-.333-.529-.888-.529-1.777V28h6.353v6.667c0 .889-.212 1.444-.53 1.777-.317.334-.529.556-1.376.556h-.212v1H46v-1h-.212c-.847 0-.953-.222-1.376-.556-.318-.333-.53-.888-.53-1.777V21.222c0-.889.212-1.555.53-1.889zM23.659 28.444c-.741-.555-1.482-1-2.435-1.11.953-.445.953-.445 1.588-.778 1.376-.89 2.011-2.112 2.011-3.556 0-1.667-1.058-2.778-2.011-3.556-.953-.777-2.541-1.444-4.87-1.444H10v1h.212c.847 0 1.059.111 1.376.444.318.445.53 1 .53 1.89v13.444c0 .889-.212 1.444-.53 1.778-.317.333-.53.555-1.376.555H10V38h8.259c2.541 0 4.13-.556 5.506-1.556 1.376-1 2.117-2.333 2.117-4 0-1.666-.74-3.11-2.223-4zM16.353 21c0-.778.106-1.222.318-1.444.211-.223.635-.556 1.27-.445.847.111 1.588.667 2.012 1.222.424.667.741 1.667.741 3 0 1.223-.317 2.111-.953 2.778-.635.556-1.588.778-2.859.778h-.53V21zm4.341 14.778c-.53.666-1.376 1.11-2.435 1.11h-.318c-.635 0-1.165-.221-1.376-.444-.106-.222-.212-.666-.212-1.333V28h.635c1.588 0 2.753.444 3.389 1.222.74.778 1.164 1.89 1.164 3.445 0 1.333-.317 2.444-.847 3.11z" fill="#fff"/></svg>