<!-- by TradingView --><svg width="56" height="56" xmlns="http://www.w3.org/2000/svg"><path fill="url(#paint0_linear)" d="M0 0h56v56H0z"/><path d="M9 27H7v-1.581c0-.332.001-1.035-.5-1.035-.456 0-.5.6-.5.909v4.522c0 .313.05.892.5.892.486 0 .5-.614.5-.958V29h-.257v-1.452H9V32H8l-.188-.667c-.27.404-.816.667-1.488.667-1.023 0-2.084-.553-2.256-1.615-.045-.28-.068-.7-.068-1.26v-3.033C4 24.246 4.54 23 6.5 23c2.046 0 2.5.974 2.5 2.805V27zm3 .83h-2c0-.547-.04-1.137.2-1.642.404-.842 1.49-1.188 2.322-1.188.912 0 2.12.29 2.365 1.384.08.354.113 1.081.113 2.184V32h-2v-.677c-.279.476-.697.677-1.308.677-.4 0-.767-.063-1.1-.263C9.986 31.376 10 30.49 10 29.88c0-1.08.732-1.33 1.675-1.654.75-.261 1.193-.452 1.246-.543.053-.09.079-.274.079-.553 0-.286-.063-.824-.478-.824-.43 0-.522.519-.522.824v.7zm1 .914c-.366.238-.854.435-.912.596-.059.161-.088.392-.088.694 0 .305.096.809.522.809.4 0 .478-.43.478-.727v-1.372zM18 25v.879c.354-.503.969-.879 1.595-.879.61 0 1.054.376 1.405.879.385-.503.883-.879 1.471-.879C23.711 25 24 26.075 24 27.176V32h-2v-4.432c0-.303 0-1.262-.5-1.262s-.5.945-.5 1.262V32h-2v-4.59c0-.305-.047-1.104-.5-1.104s-.5.67-.5.985V32h-2v-7h2zm12 3.699h-3v1.442c0 .287.114.714.5.714.456 0 .5-.504.5-.844V29h2c0 .477.035 1.108-.088 1.574-.284 1.075-1.334 1.462-2.328 1.462C26 32.036 25 31.181 25 29.493v-1.945c0-1.573.923-2.548 2.426-2.548C29.212 25 30 26.116 30 27.814v.885zm-2-1.086v-.488c0-.252-.111-.819-.5-.819s-.5.504-.5.82v.487h1z" fill="#fff"/><path d="M36 26h-2v-.833c0-.288-.13-.647-.499-.647-.286 0-.501.2-.501.622 0 .596.292 1.032.803 1.3 1.438.76 2.197 1.497 2.197 3.221C36 31.26 34.98 32 33.562 32 31.678 32 31 30.86 31 29h2v.804c0 .334.1.715.519.715.316 0 .481-.22.481-.655 0-.48-.132-.792-.28-.94-.15-.147-.42-.595-1.011-.94-1.071-.63-1.709-1.127-1.709-2.536C31 23.77 31.885 23 33.356 23c1.765 0 2.644.724 2.644 2.448V26zm3-2v1h1v1h-1v4.115c0 .439.155.613.206.663.05.05.42.222.794.222v1h-.912c-.52 0-.892-.02-1.114-.058a1.248 1.248 0 01-.588-.266.871.871 0 01-.317-.478c-.041-.179-.069-.6-.069-1.264V26h-.485v-1H37v-1h2zm7 3.463v1.634C46 30.77 45.379 32 43.5 32c-1.68 0-2.5-.9-2.5-2.682v-1.71c0-1.613.772-2.608 2.5-2.608 1.639 0 2.5.86 2.5 2.463zm-2-.503c0-.273-.106-.72-.5-.72-.398 0-.5.441-.5.72v3.011c0 .265.12.807.5.807.37 0 .5-.471.5-.741V26.96zM49 25v.569c.21-.31.54-.569 1.155-.569 1.356-.05 1.829.631 1.845 1.903v2.81c0 1.527-.973 2.909-2.48 2.068-.241-.117-.52-.492-.52-.63V33h-2v-8h2zm1 1.999c0-.306-.061-.863-.503-.863-.437 0-.497.563-.497.863v2.86c0 .304.073.808.52.808.41 0 .48-.523.48-.808V27z" fill="#FF4D44"/><defs><linearGradient id="paint0_linear" x1="10.418" y1="9.712" x2="68.147" y2="76.017" gradientUnits="userSpaceOnUse"><stop stop-color="#1A1E21"/><stop offset="1" stop-color="#06060A"/></linearGradient></defs></svg>