<!-- by TradingView --><svg width="56" height="56" xmlns="http://www.w3.org/2000/svg"><path fill="#0071C5" d="M0 0h56v56H0z"/><path d="M20.07 26.266l-.005 6.023h-1.861l.005-7.737 4.095.03c1.804 0 2.418 1.255 2.418 2.306v5.401H22.86v-5.323c0-.44-.557-.674-1.4-.674l-1.391-.026zm13.676-.168c-.703 0-1.157.329-1.384.775-.135.268-.181.473-.197.801h3.074c-.04-.8-.44-1.576-1.493-1.576zm-1.581 2.765c0 .956.564 1.744 1.731 1.744.909 0 1.125-.23 1.65-.705l1.27 1.102c-.813.73-1.416 1.285-2.92 1.285-1.968 0-3.592-1.01-3.592-3.855 0-2.43 1.37-3.882 3.53-3.882 2.192 0 2.983 1.527 2.983 3.637v.674h-4.652zm-3.872 3.426c-1.676 0-2.64-1.06-2.64-2.107v-7.72h1.882v2.117h1.839v1.713h-1.861v3.535c0 .429.465.749 1.16.749h.7v1.713h-1.08zm-11.945-8.567h-1.86l-.006-1.713h1.861l.005 1.713zm0 8.567c-1.55-.135-1.863-1.168-1.863-2.155l-.003-5.555h1.866v7.71zm24.212-.308c-1.548-.136-1.883-.99-1.883-1.975v-7.997h1.883v9.972zm7.244-9.154c-1.878-8.326-20-8.873-31.456-2.532v.7c11.445-5.348 28.024-5.296 29.503 2.372.495 2.536-.646 5.295-3.452 6.815v1.988c3.378-1.124 6.411-4.883 5.405-9.343zM26.98 37.394c-7.907.664-16.146-.38-17.299-5.997-.564-2.77 1.106-5.423 2.947-7.246v-.976c-3.314 2.643-5.395 5.705-4.36 9.657 1.322 5.068 8.393 7.94 19.187 6.986 4.27-.379 10.129-1.734 14.015-3.673V33.39c-3.526 1.909-9.63 3.594-14.49 4.004z" fill="#fff"/></svg>