<!-- by TradingView --><svg width="56" height="56" xmlns="http://www.w3.org/2000/svg"><path fill="url(#paint0_linear)" d="M0 0h56v56H0z"/><path d="M15.714 29.187c-.6 0-1.063.203-1.478.657-.37.455-.555.91-.555 1.465 0 .708.277 1.466.832 2.325-.924.707-1.57 1.263-1.94 1.718-.324.454-.508 1.01-.508 1.667 0 .606.138 1.111.415 1.516.277.455.6.808 1.016 1.06.416.253.878.405 1.34.405.97 0 1.848-.505 2.725-1.566.74 1.06 1.57 1.566 2.494 1.566.416 0 .832-.152 1.155-.404.323-.253.554-.606.647-1.061h-.37c-.23.455-.6.707-1.062.707-.323 0-.647-.1-.924-.354-.277-.202-.693-.758-1.247-1.566.231-.303.462-.808.74-1.465.322-.809.6-1.364.923-1.667a2.153 2.153 0 011.016-.607v-.404h-3.14v.404c.784.101 1.154.455 1.154 1.061 0 .253-.092.607-.231 1.061a4.9 4.9 0 01-.647 1.314 133.282 133.282 0 00-2.448-3.688c1.386-.758 2.079-1.567 2.079-2.375 0-.505-.185-.96-.6-1.263-.37-.354-.878-.506-1.386-.506zm13.256.05c-.831 0-1.617.203-2.356.658-.692.454-1.247 1.111-1.663 2.02-.415.91-.6 1.87-.6 2.88 0 1.567.416 2.78 1.293 3.74.878.96 1.987 1.415 3.326 1.415 1.293 0 2.356-.506 3.14-1.516.232.303.37.657.463 1.111h.323v-3.638h-.323c-.046.607-.231 1.213-.554 1.87-.324.657-.74 1.111-1.248 1.364-.508.253-1.062.404-1.524.404-.924 0-1.755-.404-2.355-1.212-.647-.809-.924-2.021-.924-3.537 0-1.617.277-2.88.877-3.79.6-.859 1.34-1.313 2.356-1.313.785 0 1.524.252 2.17.808.648.556 1.063 1.516 1.294 2.88h.324l-.093-3.89h-.323c-.046.454-.139.909-.37 1.364-.277-.404-.693-.708-1.293-1.061-.6-.354-1.247-.556-1.94-.556zM43.981 16c-.83 0-1.616.202-2.355.657-.693.455-1.247 1.111-1.663 2.02-.416.91-.6 1.87-.6 2.88 0 1.567.415 2.78 1.293 3.74.877.96 1.986 1.415 3.325 1.415 1.294 0 2.356-.506 3.141-1.516.231.303.37.657.462 1.111h.324V22.67h-.324c-.046.606-.23 1.212-.554 1.869-.323.657-.693 1.111-1.247 1.364-.508.253-1.062.404-1.524.404-.924 0-1.755-.404-2.356-1.263-.647-.808-.924-2.02-.924-3.537 0-1.617.277-2.88.878-3.739.6-.858 1.34-1.313 2.355-1.313.786 0 1.525.252 2.171.808.647.556 1.063 1.516 1.294 2.88H48l-.092-3.89h-.37a4.25 4.25 0 01-.37 1.313c-.276-.404-.692-.707-1.293-1.06-.554-.354-1.2-.506-1.894-.506zm-24.489 0c-.508 0-1.1.05-2.023.101l-1.201.05v.354h.185c.462 0 .785.05.923.152.139.1.231.253.278.505.046.253.092.758.092 1.617v5.053c0 .858-.046 1.414-.092 1.667-.047.253-.139.404-.278.505-.138.101-.462.152-.831.152h-.23v.354h4.34v-.354h-.369c-.415 0-.693-.05-.877-.152-.139-.1-.231-.303-.277-.556-.047-.252-.047-.758-.047-1.616v-2.173h1.017c1.062 0 1.847-.101 2.263-.354.416-.202.739-.555.97-.96.23-.454.37-.96.37-1.515a2.66 2.66 0 00-.509-1.617c-.323-.455-.785-.708-1.293-.91-.508-.151-1.44-.303-2.41-.303zm-8.767 0v.505h.231c.462 0 .785.05.924.152.138.1.23.253.277.505.046.253.046.758.046 1.617v3.486c0 1.162-.046 1.97-.092 2.476-.093.505-.324.91-.647 1.314-.37.303-.831.505-1.34.505-.276 0-.461-.05-.646-.152-.185-.1-.277-.202-.277-.353 0-.05 0-.152.092-.253.046-.151.093-.253.093-.404 0-.202-.047-.404-.185-.556a.66.66 0 00-.508-.202c-.185 0-.37.101-.508.253-.139.151-.185.353-.185.606 0 .404.185.758.554 1.01.37.304.924.405 1.617.405.647 0 1.2-.101 1.663-.354.462-.253.877-.556 1.155-1.01.277-.455.461-.91.507-1.365.047-.454.093-1.111.093-1.97v-3.537c0-.86.046-1.415.092-1.617.046-.253.139-.404.277-.455.139-.1.462-.1.924-.1h.231V16h-4.388zm14.273 0v.505h.277c.462 0 .785.05.924.152.138.1.23.253.277.505.046.253.046.758.046 1.617v4.497c0 .859 0 1.415-.092 1.768a1.412 1.412 0 01-.462.809c-.277.202-.555.303-.97.353v.354h3.371v-.354c-.415-.05-.785-.151-1.016-.404-.23-.202-.37-.505-.415-.808-.046-.303-.093-.86-.093-1.668v-6.113l3.816 9.073h.324l3.62-9.073v6.568c0 .859 0 1.415-.046 1.617-.046.202-.139.404-.323.505-.139.101-.416.152-.832.152h-.323v.353h4.526v-.353h-.415c-.416 0-.475 0-.66-.101-.139-.101-.231-.303-.277-.556-.047-.253-.047-.808-.047-1.617v-5.053c0-.859 0-1.414.093-1.616.046-.253.139-.405.277-.455.139-.101.244-.152.706-.152h.37V16h-2.91l-3.418 8.69L27.86 16h-2.863zm-9.284 13.592c.37 0 .646.151.831.404.231.252.323.606.323 1.01 0 .708-.508 1.364-1.478 2.021-.6-.91-.877-1.617-.877-2.122 0-.353.092-.657.323-.91.277-.252.554-.403.878-.403zm4.11-13.188c.878 0 1.478.202 1.848.607.37.404.6 1.01.6 1.869 0 .556-.092 1.061-.323 1.415a1.734 1.734 0 01-.831.758 4.431 4.431 0 01-1.293.202h-.693v-4.8c.138-.05.37-.05.692-.05zm18.753 15.26c-1.108 0-2.032.353-2.771 1.11-.739.759-1.108 1.719-1.108 2.931 0 1.263.369 2.274 1.108 3.032.739.758 1.663 1.162 2.818 1.162 1.2 0 2.124-.404 2.863-1.162.74-.758 1.109-1.718 1.109-2.981s-.37-2.274-1.155-2.981c-.785-.758-1.709-1.112-2.864-1.112zm.047.302c.877 0 1.57.354 2.032 1.01.462.658.693 1.618.693 2.83 0 1.264-.231 2.224-.693 2.88-.462.657-1.109.96-1.94.96-.924 0-1.617-.303-2.079-.96-.462-.657-.692-1.566-.692-2.88 0-1.263.23-2.223.692-2.88.416-.657 1.109-.96 1.987-.96zm-23.88 2.021a67.007 67.007 0 012.632 4.143c-.554.708-1.2 1.112-1.893 1.112-.6 0-1.155-.303-1.663-.859-.462-.556-.74-1.213-.74-1.87 0-.404.14-.858.416-1.313a5.05 5.05 0 011.248-1.213zm29.237 4.245a.734.734 0 00-.554.252.877.877 0 00-.23.606c0 .253.092.455.23.607a.734.734 0 001.109 0 .876.876 0 00.23-.607.877.877 0 00-.23-.606.7.7 0 00-.555-.252z" fill="#fff"/><defs><linearGradient id="paint0_linear" x1="10.418" y1="9.712" x2="68.147" y2="76.017" gradientUnits="userSpaceOnUse"><stop stop-color="#1A1E21"/><stop offset="1" stop-color="#06060A"/></linearGradient></defs></svg>