<!-- by TradingView --><svg width="56" height="56" viewBox="0 0 56 56" xmlns="http://www.w3.org/2000/svg"><path fill="#F0F3FA" d="M0 0h56v56H0z"/><path d="M5 25h5.5c.84 0 1.5.66 1.5 1.5v3c0 .84-.66 1.5-1.5 1.5H5v-6Zm1 1v4h4.5c.3 0 .5-.2.5-.5v-3c0-.3-.2-.5-.5-.5H6Z" fill="#152731"/><circle cx="14.5" cy="25.5" r=".5" fill="#152731"/><circle cx="14.5" cy="27.5" r=".5" fill="#152731"/><circle cx="16.5" cy="27.5" r=".5" fill="#4F83C4"/><circle cx="16.5" cy="29.5" r=".5" fill="#152731"/><path d="m18 25 1.03 4.76c.16.73.73 1.24 1.38 1.24h.2c.78 0 1.14-.66 1.51-1.23a.44.44 0 0 1 .76 0c.37.57.73 1.23 1.5 1.23h.21c.65 0 1.22-.5 1.38-1.24L27 25h-.97l-.98 4.5c-.05.24-.24.5-.46.5h-.2c-.33 0-.61-.66-.76-.88a1.3 1.3 0 0 0-2.26 0c-.15.22-.43.88-.76.88h-.2c-.22 0-.4-.26-.46-.5l-.98-4.5H18ZM33.5 26h-5v-1h5c.84 0 1.5.66 1.5 1.5v3c0 .84-.66 1.5-1.5 1.5h-4c-.84 0-1.5-1.16-1.5-2 0-.93.58-2 1.5-2H32v1h-2.5c-.42 0-.5.54-.5 1 0 .3.2 1 .5 1h4c.3 0 .5-.2.5-.5v-3c0-.3-.2-.5-.5-.5ZM45.5 30h5v1h-5c-.84 0-1.5-.66-1.5-1.5v-3c0-.84.66-1.5 1.5-1.5h4c.84 0 1.5 1.16 1.5 2 0 .93-.58 2-1.5 2H47v-1h2.5c.42 0 .5-.54.5-1 0-.3-.2-1-.5-1h-4c-.3 0-.5.2-.5.5v3c0 .3.2.5.5.5ZM36 25l1.31 4.77c.2.73.78 1.23 1.42 1.23h1.54c.64 0 1.21-.5 1.42-1.23L43 25h-1.05l-1.2 4.39c-.07.24-.26.61-.48.61h-1.54c-.22 0-.4-.37-.47-.61L37.05 25H36Z" fill="#152731"/></svg>