<!-- by TradingView --><svg xmlns="http://www.w3.org/2000/svg" width="56" height="56" viewBox="0 0 56 56"><path fill="url(#avkameyku)" d="M0 0h56v56H0z"/><path d="M11.99 22A5.99 5.99 0 0 0 6 28v1c0 3.32 2.68 6 5.99 6h14.7c.29 0 .42-.34.2-.51L21.4 30H15.9c-.2 0-.28.23-.13.34L17.84 32h-4.48A3.43 3.43 0 0 1 10 28.5c0-1.93 1.5-3.5 3.36-3.5h5.28a3.43 3.43 0 0 1 3.34 3.9l3.37 2.82c.42-.81.65-1.74.65-2.71v-1.02c0-3.3-2.68-5.99-5.99-5.99H12zM44 22H33.03A6.01 6.01 0 0 0 27 28v1c0 3.32 2.7 6 6.03 6H44v-3h-9.65A3.43 3.43 0 0 1 31 28.5c0-1.93 1.5-3.5 3.35-3.5H44v-3zm1 0h4v3h-4v-3zm0 4h4v9h-4v-9z" fill="#fff"/><defs><linearGradient id="avkameyku" x1="10.42" y1="9.71" x2="68.15" y2="76.02" gradientUnits="userSpaceOnUse"><stop stop-color="#1A1E21"/><stop offset="1" stop-color="#06060A"/></linearGradient></defs></svg>