<!-- by TradingView --><svg width="56" height="56" fill="none" xmlns="http://www.w3.org/2000/svg"><path fill="#F0F3FA" d="M0 0h56v56H0z"/><path d="M14.834 26.94c1.404 1.325 2.755 2.438 2.755 4.769 0 2.543-1.297 4.291-4.268 4.291-2.106 0-4.105-.848-4.267-4.133L9 31h2.863c0 1.026.22 2.192 1.458 2.192.649 0 .973-.37.973-1.166 0-1.06-1.189-2.013-2.377-2.966-1.729-1.484-2.7-2.755-2.7-4.98 0-2.279 1.35-4.08 4.158-4.08 2.161 0 3.835.954 3.998 4.08l.054.92h-2.755v-.656c0-.953-.324-1.642-1.189-1.642-.486 0-.972.318-.972 1.113-.054 1.165.594 1.589 2.323 3.125ZM42 23h1.193c.594 0 1.134.232 1.134 2.245 0 1.96-.648 2.278-1.242 2.278H42V23Zm6 13-1.837-7.258c1.08-.795 1.729-2.225 1.729-3.974 0-2.914-1.62-4.768-4.105-4.768H39v16h3v-6.464h1.03L44.436 36H48Zm-13.612-7.947c0 4.291-.594 5.192-1.62 5.192H32V23h.767c1.027 0 1.62.762 1.62 5.053ZM29 36h4.2c3.186 0 4.807-2.702 4.807-7.947S36.387 20 33.199 20H29v16Zm-4.93-10.596c0 2.172-.593 2.543-1.134 2.543H22V23h.936c.54 0 1.135.285 1.135 2.404Zm-.864 5.086c2.81 0 4.43-1.59 4.43-5.086 0-3.603-1.62-5.404-4.16-5.404H19v16h3v-5.51h1.206Z" fill="#273F33"/></svg>